<?xml version="1.0" standalone="no"?>
<!DOCTYPE svg PUBLIC "-//W3C//DTD SVG 20010904//EN"
 "http://www.w3.org/TR/2001/REC-SVG-20010904/DTD/svg10.dtd">
<svg version="1.0" xmlns="http://www.w3.org/2000/svg"
 width="840.000000pt" height="859.000000pt" viewBox="0 0 840.000000 859.000000"
 preserveAspectRatio="xMidYMid meet">
<metadata>
Created by potrace 1.16, written by Peter Selinger 2001-2019
</metadata>
<g transform="translate(0.000000,859.000000) scale(0.100000,-0.100000)"
fill="#000000" stroke="none">
<path d="M353 5740 c-46 -5 -85 -16 -107 -30 -51 -31 -114 -107 -128 -154 -19
-62 -19 -2452 0 -2515 17 -56 112 -153 168 -172 32 -12 702 -14 3859 -17 2468
-2 3849 1 3902 7 94 12 139 35 197 102 20 24 42 61 49 83 18 62 17 2453 -1
2515 -17 56 -112 153 -168 172 -32 11 -703 14 -3869 15 -2106 1 -3862 -2
-3902 -6z m3067 -650 l0 -210 105 0 105 0 0 -45 0 -45 -155 0 -155 0 0 255 0
255 50 0 50 0 0 -210z m-1505 162 c221 -60 432 -211 552 -396 84 -129 129
-251 149 -406 38 -299 -60 -587 -271 -797 -152 -151 -328 -237 -551 -269 -201
-29 -414 14 -603 122 -50 28 -170 125 -217 175 -270 286 -329 745 -142 1094
134 249 357 417 645 486 103 24 333 20 438 -9z m2405 -32 c0 -57 1 -60 24 -60
41 0 56 -11 56 -40 0 -29 -15 -40 -56 -40 l-25 0 3 -107 3 -108 38 -3 c35 -3
37 -5 37 -37 0 -31 -3 -35 -35 -41 -50 -9 -102 3 -120 29 -11 16 -15 50 -15
144 l0 122 -27 3 c-23 2 -29 8 -31 36 -3 29 0 33 27 38 30 6 31 8 31 65 l0 59
45 0 45 0 0 -60z m-556 -76 c3 -9 6 -92 6 -185 l0 -169 -45 0 -45 0 0 178 c0
98 3 182 7 185 13 14 71 7 77 -9z m325 -3 c61 -32 68 -46 35 -76 -33 -30 -36
-31 -59 -5 -28 31 -135 27 -135 -6 0 -18 27 -30 115 -49 88 -20 115 -43 115
-100 0 -79 -61 -126 -163 -126 -71 0 -122 13 -148 37 -25 23 -24 39 6 58 23
15 27 15 62 -4 48 -25 94 -26 124 -1 21 17 22 21 9 34 -8 8 -46 22 -85 31 -91
21 -119 42 -123 91 -5 60 5 82 51 109 54 33 139 36 196 7z m618 -10 c44 -32
73 -90 73 -146 l0 -35 -130 0 c-118 0 -130 -2 -130 -18 0 -30 29 -61 65 -68
39 -7 104 11 112 32 7 20 24 17 56 -10 33 -26 29 -43 -16 -73 -64 -43 -192
-46 -247 -5 -71 53 -94 179 -47 262 50 90 182 120 264 61z m221 12 c9 -16 11
-16 36 0 15 10 45 17 75 17 42 0 56 -5 83 -29 l33 -29 3 -156 4 -156 -46 0
-46 0 0 118 c0 90 -4 123 -16 140 -19 27 -63 29 -95 3 -22 -17 -23 -25 -23
-140 l-1 -121 -47 0 -48 0 0 169 c0 93 3 176 6 185 8 22 70 21 82 -1z m784
-12 c63 -40 93 -102 85 -179 -9 -97 -58 -154 -148 -170 -82 -15 -154 10 -193
67 -31 46 -40 106 -26 174 18 87 84 137 181 137 44 0 64 -6 101 -29z m236 13
c9 -16 11 -16 33 0 26 18 94 21 133 6 51 -19 60 -49 63 -211 l3 -149 -44 0
-44 0 -3 123 c-4 138 -12 157 -64 157 -58 0 -70 -25 -73 -161 l-4 -119 -44 0
-44 0 0 178 c0 98 3 182 7 185 13 14 72 7 81 -9z m444 -591 c53 -50 44 -145
-16 -183 -46 -28 -97 -26 -135 6 -72 60 -51 171 39 207 28 11 85 -4 112 -30z
m546 -26 c8 -6 12 -35 12 -89 0 -69 -2 -79 -16 -74 -31 12 -93 18 -118 12 -29
-7 -56 -52 -56 -91 l0 -25 138 0 c75 0 142 -4 149 -8 6 -4 26 -46 43 -92 17
-47 35 -94 40 -105 16 -34 60 -151 60 -159 0 -4 9 -26 19 -49 11 -24 23 -55
27 -71 12 -50 14 -46 141 324 58 169 49 160 148 160 46 0 87 -5 90 -10 6 -9
-47 -155 -137 -385 -11 -27 -26 -68 -34 -90 -8 -22 -19 -49 -24 -60 -5 -11
-30 -74 -56 -140 -54 -140 -86 -200 -126 -237 -30 -28 -111 -58 -159 -58 -35
0 -162 39 -170 52 -8 12 46 131 60 136 5 2 30 -4 55 -12 50 -17 69 -14 104 17
29 27 28 61 -4 133 -41 95 -42 97 -60 139 -9 22 -31 78 -50 125 -19 47 -41 99
-49 115 -8 17 -21 47 -29 68 l-15 38 -78 -3 -78 -3 -3 -287 -2 -288 -90 0 -90
0 0 290 0 290 -45 0 -45 0 0 85 0 85 44 0 44 0 4 73 c3 60 8 79 33 116 17 25
50 54 75 68 40 22 55 24 140 21 52 -2 101 -7 108 -11z m-3179 -52 c70 -24 136
-60 160 -89 12 -14 8 -23 -25 -71 -56 -82 -57 -82 -113 -48 -107 67 -222 84
-297 45 -46 -24 -54 -37 -54 -91 0 -26 7 -44 23 -58 25 -23 109 -56 182 -73
125 -28 217 -72 265 -126 46 -53 60 -93 60 -171 0 -160 -101 -264 -284 -293
-130 -21 -302 23 -420 107 -60 43 -64 54 -30 93 16 19 41 47 55 64 l26 30 51
-37 c89 -66 135 -81 244 -82 83 0 100 3 125 21 56 42 54 132 -5 166 -15 9 -79
30 -142 48 -156 43 -210 66 -264 112 -105 90 -107 277 -3 387 36 38 120 79
187 91 67 13 183 1 259 -25z m2179 -117 l3 -98 94 0 c109 0 109 1 103 -105
l-3 -60 -97 -3 -98 -3 0 -179 c0 -193 7 -226 47 -237 25 -6 96 1 126 13 15 5
17 -3 17 -74 l0 -80 -51 -17 c-60 -20 -178 -17 -223 5 -16 8 -43 32 -60 53
l-31 39 -3 239 -3 239 -45 0 -44 0 0 85 0 85 45 0 45 0 0 100 0 101 88 -3 87
-3 3 -97z m-1338 -123 c158 -80 234 -274 184 -468 -52 -200 -240 -316 -421
-259 -34 11 -80 34 -102 51 -21 17 -42 31 -45 31 -3 0 -6 -67 -6 -150 l0 -150
-90 0 -90 0 2 483 3 482 88 3 87 3 0 -46 c0 -34 4 -45 15 -45 9 0 18 7 21 15
8 19 85 65 127 76 58 15 173 2 227 -26z m826 -4 c81 -38 145 -103 184 -185 27
-57 31 -76 32 -156 1 -73 -4 -102 -23 -152 -44 -110 -143 -198 -265 -231 -78
-22 -134 -21 -215 1 -113 31 -198 103 -249 210 -28 58 -32 77 -32 154 -1 114
26 186 100 269 88 97 176 131 321 124 66 -3 97 -10 147 -34z m973 15 c8 -9 11
-116 9 -372 l-3 -359 -95 0 -95 0 -3 359 c-2 256 1 363 9 372 8 10 36 14 89
14 53 0 81 -4 89 -14z"/>
<path d="M1315 4764 c-148 -18 -254 -46 -277 -75 -26 -31 -23 -91 5 -116 36
-33 61 -36 141 -13 109 30 319 43 492 31 210 -16 353 -53 535 -140 48 -23 74
-30 93 -25 56 14 85 93 51 140 -15 22 -124 79 -216 113 -105 39 -246 70 -397
85 -180 19 -265 19 -427 0z"/>
<path d="M1300 4433 c-125 -19 -191 -43 -209 -74 -18 -33 -8 -74 25 -96 24
-16 31 -15 132 8 90 20 133 24 272 24 229 -1 367 -32 553 -126 91 -46 109 -48
142 -14 49 48 24 100 -72 149 -247 124 -559 172 -843 129z"/>
<path d="M1360 4131 c-116 -14 -220 -42 -230 -61 -15 -28 -12 -55 8 -73 23
-21 48 -21 142 -1 53 12 125 17 245 17 153 0 179 -2 262 -26 51 -14 131 -44
178 -66 95 -46 102 -47 133 -25 24 17 30 65 10 82 -54 43 -179 95 -308 129
-104 27 -318 38 -440 24z"/>
<path d="M5574 5070 c-35 -14 -54 -50 -54 -103 0 -40 5 -53 29 -78 46 -46 106
-37 136 21 30 58 11 135 -40 158 -30 14 -42 14 -71 2z"/>
<path d="M4314 4074 c-96 -65 -129 -185 -80 -289 27 -58 57 -88 108 -110 132
-55 268 51 268 208 0 59 -33 139 -71 174 -57 52 -162 59 -225 17z"/>
<path d="M5153 4079 c-22 -11 -53 -37 -67 -57 -81 -119 -46 -279 75 -339 174
-87 349 86 283 280 -16 48 -75 110 -120 127 -43 17 -126 12 -171 -11z"/>
</g>
</svg>
